<svg version="1.1" id="Layer_1" xmlns="http://www.w3.org/2000/svg" xmlns:xlink="http://www.w3.org/1999/xlink" x="0px" y="0px"
	 width="100%" viewBox="0 0 288 288" enable-background="new 0 0 288 288" xml:space="preserve" fill="#346C2F">
<path fill="#000000" opacity="0.000000" stroke="none" 
	d="
M198.000000,289.000000 
	C132.028427,289.000000 66.556870,289.000000 1.042650,289.000000 
	C1.042650,193.070129 1.042650,97.140221 1.042650,1.105161 
	C96.888115,1.105161 192.776382,1.105161 288.832336,1.105161 
	C288.832336,96.999756 288.832336,192.999863 288.832336,289.000000 
	C258.807037,289.000000 228.653519,289.000000 198.000000,289.000000 
M133.500000,265.000000 
	C158.333054,265.000000 183.174789,264.619141 207.994888,265.186188 
	C218.015778,265.415161 228.165009,258.568054 231.020142,248.219650 
	C236.195358,229.462051 241.361145,210.701859 246.522781,191.940536 
	C252.631180,169.738037 258.957672,147.591843 264.727753,125.301697 
	C267.176941,115.840233 261.831696,107.770592 251.610672,108.934082 
	C247.990967,109.346123 244.243668,108.659767 240.630249,109.098213 
	C237.201523,109.514252 235.492752,107.807510 234.066391,105.297859 
	C222.728302,85.348793 211.419266,65.383224 200.082169,45.433594 
	C197.297653,40.533749 194.442673,35.673954 191.473282,30.542025 
	C183.963135,34.785931 176.948502,38.749825 169.875366,42.746780 
	C182.460281,64.811920 194.873169,86.575455 207.487946,108.692947 
	C165.385818,108.692947 124.322380,108.692947 82.485558,108.692947 
	C95.253349,86.324326 107.701279,64.516106 120.155815,42.696297 
	C112.748337,38.556263 105.715500,34.625610 98.374031,30.522467 
	C94.219200,37.693928 90.362900,44.280643 86.572823,50.905251 
	C75.907272,69.547394 65.301437,88.223923 54.537079,106.808716 
	C53.908909,107.893265 52.110527,108.841446 50.812737,108.901436 
	C45.657135,109.139740 40.483150,108.939339 35.317707,109.016785 
	C29.681101,109.101303 24.929102,113.746101 25.077482,119.412766 
	C25.170698,122.972771 25.670555,126.604340 26.580153,130.047363 
	C32.339649,151.848160 38.166740,173.632233 44.164631,195.368546 
	C49.296452,213.966232 54.674320,232.496155 59.968998,251.048752 
	C61.915607,257.869690 71.995125,265.141571 79.501350,265.060760 
	C97.165741,264.870605 114.833565,264.999939 133.500000,265.000000 
z"/>
<path fill="#346C2F" opacity="1.000000" stroke="none" 
	d="
M133.000000,265.000000 
	C114.833565,264.999939 97.165741,264.870605 79.501350,265.060760 
	C71.995125,265.141571 61.915607,257.869690 59.968998,251.048752 
	C54.674320,232.496155 49.296452,213.966232 44.164631,195.368546 
	C38.166740,173.632233 32.339649,151.848160 26.580153,130.047363 
	C25.670555,126.604340 25.170698,122.972771 25.077482,119.412766 
	C24.929102,113.746101 29.681101,109.101303 35.317707,109.016785 
	C40.483150,108.939339 45.657135,109.139740 50.812737,108.901436 
	C52.110527,108.841446 53.908909,107.893265 54.537079,106.808716 
	C65.301437,88.223923 75.907272,69.547394 86.572823,50.905251 
	C90.362900,44.280643 94.219200,37.693928 98.374031,30.522467 
	C105.715500,34.625610 112.748337,38.556263 120.155815,42.696297 
	C107.701279,64.516106 95.253349,86.324326 82.485558,108.692947 
	C124.322380,108.692947 165.385818,108.692947 207.487946,108.692947 
	C194.873169,86.575455 182.460281,64.811920 169.875366,42.746780 
	C176.948502,38.749825 183.963135,34.785931 191.473282,30.542025 
	C194.442673,35.673954 197.297653,40.533749 200.082169,45.433594 
	C211.419266,65.383224 222.728302,85.348793 234.066391,105.297859 
	C235.492752,107.807510 237.201523,109.514252 240.630249,109.098213 
	C244.243668,108.659767 247.990967,109.346123 251.610672,108.934082 
	C261.831696,107.770592 267.176941,115.840233 264.727753,125.301697 
	C258.957672,147.591843 252.631180,169.738037 246.522781,191.940536 
	C241.361145,210.701859 236.195358,229.462051 231.020142,248.219650 
	C228.165009,258.568054 218.015778,265.415161 207.994888,265.186188 
	C183.174789,264.619141 158.333054,265.000000 133.000000,265.000000 
M59.929226,156.774719 
	C59.964558,157.439804 59.881336,158.137146 60.052299,158.765305 
	C67.118690,184.729523 74.244263,210.677719 81.250725,236.658051 
	C82.184097,240.119034 83.972260,241.100128 87.532097,241.087051 
	C125.671432,240.947083 163.812012,240.904266 201.950607,241.122849 
	C206.642517,241.149734 208.011719,239.358337 209.087906,235.249374 
	C215.618851,210.314102 222.415375,185.448257 229.155136,160.567871 
	C231.622116,151.460861 234.176346,142.377502 236.706558,133.226166 
	C175.241440,133.226166 114.384857,133.226166 53.202332,133.226166 
	C55.368187,141.025314 57.452351,148.530273 59.929226,156.774719 
z"/>
<path fill="#000000" opacity="0.000000" stroke="none" 
	d="
M59.732872,156.404984 
	C57.452351,148.530273 55.368187,141.025314 53.202332,133.226166 
	C114.384857,133.226166 175.241440,133.226166 236.706558,133.226166 
	C234.176346,142.377502 231.622116,151.460861 229.155136,160.567871 
	C222.415375,185.448257 215.618851,210.314102 209.087906,235.249374 
	C208.011719,239.358337 206.642517,241.149734 201.950607,241.122849 
	C163.812012,240.904266 125.671432,240.947083 87.532097,241.087051 
	C83.972260,241.100128 82.184097,240.119034 81.250725,236.658051 
	C74.244263,210.677719 67.118690,184.729523 60.052299,158.765305 
	C59.881336,158.137146 59.964558,157.439804 59.732872,156.404984 
M121.491776,157.000000 
	C117.400826,157.000000 113.309875,157.000000 109.390076,157.000000 
	C109.390076,177.416824 109.390076,197.137726 109.390076,216.739655 
	C117.387672,216.739655 124.992615,216.739655 132.696442,216.739655 
	C132.696442,196.758591 132.696442,177.039276 132.696442,157.000000 
	C129.091354,157.000000 125.786270,157.000000 121.491776,157.000000 
M181.000000,189.500000 
	C181.000000,178.744049 181.000000,167.988098 181.000000,157.387604 
	C172.586960,157.387604 164.861725,157.387604 157.252716,157.387604 
	C157.252716,177.377197 157.252716,196.978241 157.252716,216.700836 
	C165.229889,216.700836 172.951813,216.700836 181.000000,216.700836 
	C181.000000,207.769638 181.000000,199.134827 181.000000,189.500000 
z"/>
<path fill="#346C2F" opacity="1.000000" stroke="none" 
	d="
M121.986481,157.000000 
	C125.786270,157.000000 129.091354,157.000000 132.696442,157.000000 
	C132.696442,177.039276 132.696442,196.758591 132.696442,216.739655 
	C124.992615,216.739655 117.387672,216.739655 109.390076,216.739655 
	C109.390076,197.137726 109.390076,177.416824 109.390076,157.000000 
	C113.309875,157.000000 117.400826,157.000000 121.986481,157.000000 
z"/>
<path fill="#346C2F" opacity="1.000000" stroke="none" 
	d="
M181.000000,190.000000 
	C181.000000,199.134827 181.000000,207.769638 181.000000,216.700836 
	C172.951813,216.700836 165.229889,216.700836 157.252716,216.700836 
	C157.252716,196.978241 157.252716,177.377197 157.252716,157.387604 
	C164.861725,157.387604 172.586960,157.387604 181.000000,157.387604 
	C181.000000,167.988098 181.000000,178.744049 181.000000,190.000000 
z"/>
</svg>